<mxfile host="app.diagrams.net" modified="2024-03-03T17:46:34.281Z" agent="Mozilla/5.0 (Windows NT 10.0; Win64; x64) AppleWebKit/537.36 (KHTML, like Gecko) Chrome/122.0.0.0 Safari/537.36" etag="IMkBIWe4Y75BHLjGgOMb" version="23.1.7" type="google">
  <diagram name="Halaman-1" id="Or3sFD2TqJZeAJhBWz9G">
    <mxGraphModel grid="1" page="1" gridSize="10" guides="1" tooltips="1" connect="1" arrows="1" fold="1" pageScale="1" pageWidth="827" pageHeight="1169" math="0" shadow="0">
      <root>
        <mxCell id="0" />
        <mxCell id="1" parent="0" />
        <mxCell id="rHyU6Tgebv4A_tUGGNK6-3" style="edgeStyle=orthogonalEdgeStyle;rounded=0;orthogonalLoop=1;jettySize=auto;html=1;" edge="1" parent="1" source="rHyU6Tgebv4A_tUGGNK6-2">
          <mxGeometry relative="1" as="geometry">
            <mxPoint x="80" y="180" as="targetPoint" />
          </mxGeometry>
        </mxCell>
        <mxCell id="rHyU6Tgebv4A_tUGGNK6-2" value="POWER&lt;br&gt;ON" style="ellipse;whiteSpace=wrap;html=1;aspect=fixed;" vertex="1" parent="1">
          <mxGeometry x="40" y="40" width="80" height="80" as="geometry" />
        </mxCell>
        <mxCell id="rHyU6Tgebv4A_tUGGNK6-5" style="edgeStyle=orthogonalEdgeStyle;rounded=0;orthogonalLoop=1;jettySize=auto;html=1;" edge="1" parent="1" source="rHyU6Tgebv4A_tUGGNK6-4">
          <mxGeometry relative="1" as="geometry">
            <mxPoint x="80" y="280" as="targetPoint" />
          </mxGeometry>
        </mxCell>
        <mxCell id="rHyU6Tgebv4A_tUGGNK6-4" value="POST&lt;br&gt;(Power-On Self-Test)" style="whiteSpace=wrap;html=1;" vertex="1" parent="1">
          <mxGeometry x="20" y="170" width="120" height="60" as="geometry" />
        </mxCell>
        <mxCell id="rHyU6Tgebv4A_tUGGNK6-8" style="edgeStyle=orthogonalEdgeStyle;rounded=0;orthogonalLoop=1;jettySize=auto;html=1;" edge="1" parent="1" source="rHyU6Tgebv4A_tUGGNK6-6" target="rHyU6Tgebv4A_tUGGNK6-12">
          <mxGeometry relative="1" as="geometry">
            <mxPoint x="80" y="420" as="targetPoint" />
            <Array as="points" />
          </mxGeometry>
        </mxCell>
        <mxCell id="rHyU6Tgebv4A_tUGGNK6-6" value="BIOS&lt;br&gt;INIZIALITATION" style="whiteSpace=wrap;html=1;" vertex="1" parent="1">
          <mxGeometry x="20" y="280" width="120" height="60" as="geometry" />
        </mxCell>
        <mxCell id="rHyU6Tgebv4A_tUGGNK6-19" style="edgeStyle=orthogonalEdgeStyle;rounded=0;orthogonalLoop=1;jettySize=auto;html=1;entryX=0.5;entryY=0;entryDx=0;entryDy=0;" edge="1" parent="1" source="rHyU6Tgebv4A_tUGGNK6-12" target="rHyU6Tgebv4A_tUGGNK6-14">
          <mxGeometry relative="1" as="geometry" />
        </mxCell>
        <mxCell id="rHyU6Tgebv4A_tUGGNK6-12" value="BOOT DEVICE SELECTION: BIOS" style="whiteSpace=wrap;html=1;" vertex="1" parent="1">
          <mxGeometry x="20" y="400" width="120" height="60" as="geometry" />
        </mxCell>
        <mxCell id="rHyU6Tgebv4A_tUGGNK6-20" style="edgeStyle=orthogonalEdgeStyle;rounded=0;orthogonalLoop=1;jettySize=auto;html=1;entryX=0;entryY=0.5;entryDx=0;entryDy=0;" edge="1" parent="1" source="rHyU6Tgebv4A_tUGGNK6-14" target="rHyU6Tgebv4A_tUGGNK6-18">
          <mxGeometry relative="1" as="geometry" />
        </mxCell>
        <mxCell id="rHyU6Tgebv4A_tUGGNK6-14" value="Bootstrap Loader : BIOS" style="rounded=0;whiteSpace=wrap;html=1;" vertex="1" parent="1">
          <mxGeometry x="20" y="500" width="120" height="60" as="geometry" />
        </mxCell>
        <mxCell id="rHyU6Tgebv4A_tUGGNK6-15" value="Login atau desktop environment" style="rounded=0;whiteSpace=wrap;html=1;" vertex="1" parent="1">
          <mxGeometry x="220" y="180" width="120" height="60" as="geometry" />
        </mxCell>
        <mxCell id="rHyU6Tgebv4A_tUGGNK6-22" style="edgeStyle=orthogonalEdgeStyle;rounded=0;orthogonalLoop=1;jettySize=auto;html=1;" edge="1" parent="1" source="rHyU6Tgebv4A_tUGGNK6-16" target="rHyU6Tgebv4A_tUGGNK6-17">
          <mxGeometry relative="1" as="geometry" />
        </mxCell>
        <mxCell id="rHyU6Tgebv4A_tUGGNK6-16" value="Kernel Initialization" style="rounded=0;whiteSpace=wrap;html=1;" vertex="1" parent="1">
          <mxGeometry x="220" y="400" width="120" height="60" as="geometry" />
        </mxCell>
        <mxCell id="rHyU6Tgebv4A_tUGGNK6-23" style="edgeStyle=orthogonalEdgeStyle;rounded=0;orthogonalLoop=1;jettySize=auto;html=1;entryX=0.5;entryY=1;entryDx=0;entryDy=0;" edge="1" parent="1" source="rHyU6Tgebv4A_tUGGNK6-17" target="rHyU6Tgebv4A_tUGGNK6-15">
          <mxGeometry relative="1" as="geometry" />
        </mxCell>
        <mxCell id="rHyU6Tgebv4A_tUGGNK6-17" value="User Space Initialization" style="rounded=0;whiteSpace=wrap;html=1;" vertex="1" parent="1">
          <mxGeometry x="220" y="280" width="120" height="60" as="geometry" />
        </mxCell>
        <mxCell id="rHyU6Tgebv4A_tUGGNK6-21" style="edgeStyle=orthogonalEdgeStyle;rounded=0;orthogonalLoop=1;jettySize=auto;html=1;entryX=0.5;entryY=1;entryDx=0;entryDy=0;" edge="1" parent="1" source="rHyU6Tgebv4A_tUGGNK6-18" target="rHyU6Tgebv4A_tUGGNK6-16">
          <mxGeometry relative="1" as="geometry" />
        </mxCell>
        <mxCell id="rHyU6Tgebv4A_tUGGNK6-18" value="Kernel Loading" style="rounded=0;whiteSpace=wrap;html=1;" vertex="1" parent="1">
          <mxGeometry x="220" y="500" width="120" height="60" as="geometry" />
        </mxCell>
      </root>
    </mxGraphModel>
  </diagram>
</mxfile>
